<svg width="257" height="103" viewBox="0 0 257 103" fill="none" xmlns="http://www.w3.org/2000/svg">
<rect width="257" height="103" rx="50" fill="white"/>
<rect width="257" height="103" rx="50" fill="#FFCA00"/>
<rect width="257" height="103" rx="50" fill="url(#paint0_radial_2_105)"/>
<path d="M97.38 59.1C96.46 59.1 95.5867 58.9133 94.76 58.54C93.9467 58.1667 93.2267 57.6533 92.6 57C91.9867 56.3333 91.5067 55.56 91.16 54.68C90.8133 53.8 90.64 52.8467 90.64 51.82C90.64 50.8467 90.8133 49.9333 91.16 49.08C91.5067 48.2133 91.9933 47.4533 92.62 46.8C93.2467 46.1467 93.98 45.6333 94.82 45.26C95.66 44.8867 96.5733 44.7 97.56 44.7C98.8933 44.7 100.033 44.9867 100.98 45.56C101.94 46.12 102.66 46.8667 103.14 47.8L101.08 49.32C100.72 48.6133 100.213 48.0733 99.56 47.7C98.92 47.3267 98.22 47.14 97.46 47.14C96.86 47.14 96.3133 47.2667 95.82 47.52C95.3267 47.7733 94.9 48.12 94.54 48.56C94.18 49 93.9 49.5067 93.7 50.08C93.5133 50.6533 93.42 51.26 93.42 51.9C93.42 52.58 93.52 53.2067 93.72 53.78C93.9333 54.3533 94.2267 54.8533 94.6 55.28C94.9867 55.7067 95.4333 56.0467 95.94 56.3C96.4467 56.54 97.0067 56.66 97.62 56.66C98.34 56.66 99.0267 56.4733 99.68 56.1C100.347 55.7267 100.967 55.18 101.54 54.46V57.18C100.353 58.46 98.9667 59.1 97.38 59.1ZM101.34 53.72H98.48V51.7H103.62V59H101.34V53.72ZM105.972 59V44.8H108.732V59H105.972ZM122.315 47.22H117.775V59H115.035V47.22H110.495V44.8H122.315V47.22ZM136.018 44.8V59H133.278V52.94H126.838V59H124.078V44.8H126.838V50.54H133.278V44.8H136.018ZM145 59.1C143.867 59.1 142.9 58.9133 142.1 58.54C141.313 58.1533 140.673 57.6267 140.18 56.96C139.7 56.2933 139.347 55.54 139.12 54.7C138.893 53.8467 138.78 52.96 138.78 52.04V44.8H141.54V52.04C141.54 52.6267 141.593 53.2 141.7 53.76C141.82 54.3067 142.013 54.8 142.28 55.24C142.547 55.68 142.9 56.0267 143.34 56.28C143.78 56.5333 144.327 56.66 144.98 56.66C145.647 56.66 146.2 56.5333 146.64 56.28C147.093 56.0133 147.447 55.66 147.7 55.22C147.967 54.78 148.16 54.2867 148.28 53.74C148.4 53.18 148.46 52.6133 148.46 52.04V44.8H151.2V52.04C151.2 53.0133 151.08 53.9267 150.84 54.78C150.613 55.6333 150.247 56.3867 149.74 57.04C149.247 57.68 148.607 58.1867 147.82 58.56C147.033 58.92 146.093 59.1 145 59.1ZM165.42 55.34C165.42 56.14 165.213 56.8133 164.8 57.36C164.387 57.8933 163.827 58.3 163.12 58.58C162.427 58.86 161.667 59 160.84 59H153.98V44.8H161.58C162.247 44.8 162.82 44.98 163.3 45.34C163.793 45.6867 164.167 46.14 164.42 46.7C164.687 47.2467 164.82 47.82 164.82 48.42C164.82 49.1 164.647 49.7467 164.3 50.36C163.953 50.9733 163.447 51.4267 162.78 51.72C163.593 51.96 164.233 52.3933 164.7 53.02C165.18 53.6467 165.42 54.42 165.42 55.34ZM162.64 54.82C162.64 54.46 162.567 54.14 162.42 53.86C162.273 53.5667 162.073 53.34 161.82 53.18C161.58 53.0067 161.3 52.92 160.98 52.92H156.74V56.66H160.84C161.173 56.66 161.473 56.58 161.74 56.42C162.02 56.2467 162.24 56.02 162.4 55.74C162.56 55.46 162.64 55.1533 162.64 54.82ZM156.74 47.16V50.74H160.42C160.727 50.74 161.007 50.6667 161.26 50.52C161.513 50.3733 161.713 50.1667 161.86 49.9C162.02 49.6333 162.1 49.3133 162.1 48.94C162.1 48.58 162.027 48.2667 161.88 48C161.747 47.7333 161.56 47.5267 161.32 47.38C161.093 47.2333 160.833 47.16 160.54 47.16H156.74Z" fill="white"/>
<defs>
<radialGradient id="paint0_radial_2_105" cx="0" cy="0" r="1" gradientUnits="userSpaceOnUse" gradientTransform="translate(128.5 103) rotate(-90) scale(103 257)">
<stop stop-color="#FF9500" stop-opacity="0"/>
<stop offset="1" stop-color="#FF9500"/>
</radialGradient>
</defs>
</svg>
