<svg width="260" height="63" viewBox="0 0 260 63" fill="none" xmlns="http://www.w3.org/2000/svg">
<rect width="260" height="63" rx="31.5" fill="white"/>
<path d="M121.92 35.34C121.92 36.14 121.713 36.8133 121.3 37.36C120.887 37.8933 120.327 38.3 119.62 38.58C118.927 38.86 118.167 39 117.34 39H110.48V24.8H118.08C118.747 24.8 119.32 24.98 119.8 25.34C120.293 25.6867 120.667 26.14 120.92 26.7C121.187 27.2467 121.32 27.82 121.32 28.42C121.32 29.1 121.147 29.7467 120.8 30.36C120.453 30.9733 119.947 31.4267 119.28 31.72C120.093 31.96 120.733 32.3933 121.2 33.02C121.68 33.6467 121.92 34.42 121.92 35.34ZM119.14 34.82C119.14 34.46 119.067 34.14 118.92 33.86C118.773 33.5667 118.573 33.34 118.32 33.18C118.08 33.0067 117.8 32.92 117.48 32.92H113.24V36.66H117.34C117.673 36.66 117.973 36.58 118.24 36.42C118.52 36.2467 118.74 36.02 118.9 35.74C119.06 35.46 119.14 35.1533 119.14 34.82ZM113.24 27.16V30.74H116.92C117.227 30.74 117.507 30.6667 117.76 30.52C118.013 30.3733 118.213 30.1667 118.36 29.9C118.52 29.6333 118.6 29.3133 118.6 28.94C118.6 28.58 118.527 28.2667 118.38 28C118.247 27.7333 118.06 27.5267 117.82 27.38C117.593 27.2333 117.333 27.16 117.04 27.16H113.24ZM130.094 39.1C128.96 39.1 127.994 38.9133 127.194 38.54C126.407 38.1533 125.767 37.6267 125.274 36.96C124.794 36.2933 124.44 35.54 124.214 34.7C123.987 33.8467 123.874 32.96 123.874 32.04V24.8H126.634V32.04C126.634 32.6267 126.687 33.2 126.794 33.76C126.914 34.3067 127.107 34.8 127.374 35.24C127.64 35.68 127.994 36.0267 128.434 36.28C128.874 36.5333 129.42 36.66 130.074 36.66C130.74 36.66 131.294 36.5333 131.734 36.28C132.187 36.0133 132.54 35.66 132.794 35.22C133.06 34.78 133.254 34.2867 133.374 33.74C133.494 33.18 133.554 32.6133 133.554 32.04V24.8H136.294V32.04C136.294 33.0133 136.174 33.9267 135.934 34.78C135.707 35.6333 135.34 36.3867 134.834 37.04C134.34 37.68 133.7 38.1867 132.914 38.56C132.127 38.92 131.187 39.1 130.094 39.1ZM140.674 24.8L144.174 31.48L147.734 24.8H150.714L145.554 34.04V39H142.814V34L137.674 24.8H140.674Z" fill="black"/>
</svg>
