<svg width="148" height="63" viewBox="0 0 148 63" fill="none" xmlns="http://www.w3.org/2000/svg">
<rect width="148" height="63" rx="31.5" fill="white"/>
<path d="M65.92 35.34C65.92 36.14 65.7133 36.8133 65.3 37.36C64.8867 37.8933 64.3267 38.3 63.62 38.58C62.9267 38.86 62.1667 39 61.34 39H54.48V24.8H62.08C62.7467 24.8 63.32 24.98 63.8 25.34C64.2933 25.6867 64.6667 26.14 64.92 26.7C65.1867 27.2467 65.32 27.82 65.32 28.42C65.32 29.1 65.1467 29.7467 64.8 30.36C64.4533 30.9733 63.9467 31.4267 63.28 31.72C64.0933 31.96 64.7333 32.3933 65.2 33.02C65.68 33.6467 65.92 34.42 65.92 35.34ZM63.14 34.82C63.14 34.46 63.0667 34.14 62.92 33.86C62.7733 33.5667 62.5733 33.34 62.32 33.18C62.08 33.0067 61.8 32.92 61.48 32.92H57.24V36.66H61.34C61.6733 36.66 61.9733 36.58 62.24 36.42C62.52 36.2467 62.74 36.02 62.9 35.74C63.06 35.46 63.14 35.1533 63.14 34.82ZM57.24 27.16V30.74H60.92C61.2267 30.74 61.5067 30.6667 61.76 30.52C62.0133 30.3733 62.2133 30.1667 62.36 29.9C62.52 29.6333 62.6 29.3133 62.6 28.94C62.6 28.58 62.5267 28.2667 62.38 28C62.2467 27.7333 62.06 27.5267 61.82 27.38C61.5933 27.2333 61.3333 27.16 61.04 27.16H57.24ZM74.0938 39.1C72.9604 39.1 71.9938 38.9133 71.1938 38.54C70.4071 38.1533 69.7671 37.6267 69.2738 36.96C68.7938 36.2933 68.4404 35.54 68.2138 34.7C67.9871 33.8467 67.8738 32.96 67.8738 32.04V24.8H70.6338V32.04C70.6338 32.6267 70.6871 33.2 70.7938 33.76C70.9138 34.3067 71.1071 34.8 71.3738 35.24C71.6404 35.68 71.9938 36.0267 72.4338 36.28C72.8738 36.5333 73.4204 36.66 74.0738 36.66C74.7404 36.66 75.2938 36.5333 75.7338 36.28C76.1871 36.0133 76.5404 35.66 76.7938 35.22C77.0604 34.78 77.2538 34.2867 77.3738 33.74C77.4938 33.18 77.5538 32.6133 77.5538 32.04V24.8H80.2938V32.04C80.2938 33.0133 80.1738 33.9267 79.9338 34.78C79.7071 35.6333 79.3404 36.3867 78.8338 37.04C78.3404 37.68 77.7004 38.1867 76.9138 38.56C76.1271 38.92 75.1871 39.1 74.0938 39.1ZM84.6738 24.8L88.1738 31.48L91.7338 24.8H94.7138L89.5538 34.04V39H86.8138V34L81.6738 24.8H84.6738Z" fill="black"/>
</svg>
