<svg width="259" height="63" viewBox="0 0 259 63" fill="none" xmlns="http://www.w3.org/2000/svg">
<rect width="259" height="63" rx="31.5" fill="#FFCA00"/>
<rect width="259" height="63" rx="31.5" fill="url(#paint0_radial_2_163)"/>
<path d="M103.12 31.8C103.12 30.9333 103.273 30.0867 103.58 29.26C103.9 28.42 104.36 27.66 104.96 26.98C105.56 26.2867 106.293 25.74 107.16 25.34C108.027 24.9267 109.013 24.72 110.12 24.72C111.427 24.72 112.553 25.0067 113.5 25.58C114.46 26.1533 115.173 26.9 115.64 27.82L113.52 29.28C113.28 28.7467 112.967 28.3267 112.58 28.02C112.193 27.7 111.78 27.48 111.34 27.36C110.9 27.2267 110.467 27.16 110.04 27.16C109.347 27.16 108.74 27.3 108.22 27.58C107.713 27.86 107.287 28.2267 106.94 28.68C106.593 29.1333 106.333 29.64 106.16 30.2C106 30.76 105.92 31.32 105.92 31.88C105.92 32.5067 106.02 33.1133 106.22 33.7C106.42 34.2733 106.7 34.7867 107.06 35.24C107.433 35.68 107.873 36.0333 108.38 36.3C108.9 36.5533 109.467 36.68 110.08 36.68C110.52 36.68 110.967 36.6067 111.42 36.46C111.873 36.3133 112.293 36.08 112.68 35.76C113.067 35.44 113.367 35.0267 113.58 34.52L115.84 35.82C115.56 36.5267 115.1 37.1267 114.46 37.62C113.833 38.1133 113.127 38.4867 112.34 38.74C111.553 38.9933 110.773 39.12 110 39.12C108.987 39.12 108.06 38.9133 107.22 38.5C106.38 38.0733 105.653 37.5133 105.04 36.82C104.44 36.1133 103.967 35.3267 103.62 34.46C103.287 33.58 103.12 32.6933 103.12 31.8ZM123.575 39.1C122.535 39.1 121.588 38.9 120.735 38.5C119.895 38.1 119.168 37.56 118.555 36.88C117.955 36.1867 117.488 35.4133 117.155 34.56C116.822 33.6933 116.655 32.8067 116.655 31.9C116.655 30.9533 116.828 30.0533 117.175 29.2C117.535 28.3333 118.022 27.5667 118.635 26.9C119.262 26.22 119.995 25.6867 120.835 25.3C121.688 24.9 122.622 24.7 123.635 24.7C124.662 24.7 125.595 24.9067 126.435 25.32C127.288 25.7333 128.015 26.2867 128.615 26.98C129.215 27.6733 129.682 28.4467 130.015 29.3C130.348 30.1533 130.515 31.0333 130.515 31.94C130.515 32.8733 130.342 33.7733 129.995 34.64C129.648 35.4933 129.162 36.26 128.535 36.94C127.922 37.6067 127.188 38.1333 126.335 38.52C125.495 38.9067 124.575 39.1 123.575 39.1ZM119.455 31.9C119.455 32.5133 119.548 33.1067 119.735 33.68C119.922 34.2533 120.188 34.7667 120.535 35.22C120.895 35.66 121.328 36.0133 121.835 36.28C122.355 36.5333 122.942 36.66 123.595 36.66C124.262 36.66 124.855 36.5267 125.375 36.26C125.895 35.98 126.328 35.6133 126.675 35.16C127.022 34.6933 127.282 34.18 127.455 33.62C127.642 33.0467 127.735 32.4733 127.735 31.9C127.735 31.2867 127.635 30.7 127.435 30.14C127.248 29.5667 126.975 29.06 126.615 28.62C126.268 28.1667 125.835 27.8133 125.315 27.56C124.808 27.2933 124.235 27.16 123.595 27.16C122.915 27.16 122.315 27.3 121.795 27.58C121.288 27.8467 120.862 28.2067 120.515 28.66C120.168 29.1133 119.902 29.62 119.715 30.18C119.542 30.74 119.455 31.3133 119.455 31.9ZM132.632 39V24.8H138.652C139.306 24.8 139.906 24.9333 140.452 25.2C140.999 25.4667 141.472 25.8267 141.872 26.28C142.286 26.7333 142.606 27.24 142.832 27.8C143.059 28.36 143.172 28.9333 143.172 29.52C143.172 30.32 142.986 31.08 142.612 31.8C142.239 32.52 141.726 33.1067 141.072 33.56C140.419 34.0133 139.646 34.24 138.752 34.24H135.392V39H132.632ZM135.392 31.82H138.592C138.926 31.82 139.226 31.7267 139.492 31.54C139.759 31.3533 139.972 31.0867 140.132 30.74C140.292 30.38 140.372 29.9733 140.372 29.52C140.372 29.0267 140.279 28.6067 140.092 28.26C139.919 27.9133 139.686 27.6533 139.392 27.48C139.112 27.3067 138.806 27.22 138.472 27.22H135.392V31.82ZM146.322 24.8L149.822 31.48L153.382 24.8H156.362L151.202 34.04V39H148.462V34L143.322 24.8H146.322Z" fill="white"/>
<defs>
<radialGradient id="paint0_radial_2_163" cx="0" cy="0" r="1" gradientUnits="userSpaceOnUse" gradientTransform="translate(129.5 63) rotate(-90) scale(63 259)">
<stop stop-color="#FF9500" stop-opacity="0"/>
<stop offset="1" stop-color="#FF9500"/>
</radialGradient>
</defs>
</svg>
