<svg width="160" height="63" viewBox="0 0 160 63" fill="none" xmlns="http://www.w3.org/2000/svg">
<rect width="160" height="63" rx="31.5" fill="#FFCA00"/>
<rect width="160" height="63" rx="31.5" fill="url(#paint0_radial_2_100)"/>
<path d="M53.62 31.8C53.62 30.9333 53.7733 30.0867 54.08 29.26C54.4 28.42 54.86 27.66 55.46 26.98C56.06 26.2867 56.7933 25.74 57.66 25.34C58.5267 24.9267 59.5133 24.72 60.62 24.72C61.9267 24.72 63.0533 25.0067 64 25.58C64.96 26.1533 65.6733 26.9 66.14 27.82L64.02 29.28C63.78 28.7467 63.4667 28.3267 63.08 28.02C62.6933 27.7 62.28 27.48 61.84 27.36C61.4 27.2267 60.9667 27.16 60.54 27.16C59.8467 27.16 59.24 27.3 58.72 27.58C58.2133 27.86 57.7867 28.2267 57.44 28.68C57.0933 29.1333 56.8333 29.64 56.66 30.2C56.5 30.76 56.42 31.32 56.42 31.88C56.42 32.5067 56.52 33.1133 56.72 33.7C56.92 34.2733 57.2 34.7867 57.56 35.24C57.9333 35.68 58.3733 36.0333 58.88 36.3C59.4 36.5533 59.9667 36.68 60.58 36.68C61.02 36.68 61.4667 36.6067 61.92 36.46C62.3733 36.3133 62.7933 36.08 63.18 35.76C63.5667 35.44 63.8667 35.0267 64.08 34.52L66.34 35.82C66.06 36.5267 65.6 37.1267 64.96 37.62C64.3333 38.1133 63.6267 38.4867 62.84 38.74C62.0533 38.9933 61.2733 39.12 60.5 39.12C59.4867 39.12 58.56 38.9133 57.72 38.5C56.88 38.0733 56.1533 37.5133 55.54 36.82C54.94 36.1133 54.4667 35.3267 54.12 34.46C53.7867 33.58 53.62 32.6933 53.62 31.8ZM74.0752 39.1C73.0352 39.1 72.0885 38.9 71.2352 38.5C70.3952 38.1 69.6685 37.56 69.0552 36.88C68.4552 36.1867 67.9885 35.4133 67.6552 34.56C67.3218 33.6933 67.1552 32.8067 67.1552 31.9C67.1552 30.9533 67.3285 30.0533 67.6752 29.2C68.0352 28.3333 68.5218 27.5667 69.1352 26.9C69.7618 26.22 70.4952 25.6867 71.3352 25.3C72.1885 24.9 73.1218 24.7 74.1352 24.7C75.1618 24.7 76.0952 24.9067 76.9352 25.32C77.7885 25.7333 78.5152 26.2867 79.1152 26.98C79.7152 27.6733 80.1818 28.4467 80.5152 29.3C80.8485 30.1533 81.0152 31.0333 81.0152 31.94C81.0152 32.8733 80.8418 33.7733 80.4952 34.64C80.1485 35.4933 79.6618 36.26 79.0352 36.94C78.4218 37.6067 77.6885 38.1333 76.8352 38.52C75.9952 38.9067 75.0752 39.1 74.0752 39.1ZM69.9552 31.9C69.9552 32.5133 70.0485 33.1067 70.2352 33.68C70.4218 34.2533 70.6885 34.7667 71.0352 35.22C71.3952 35.66 71.8285 36.0133 72.3352 36.28C72.8552 36.5333 73.4418 36.66 74.0952 36.66C74.7618 36.66 75.3552 36.5267 75.8752 36.26C76.3952 35.98 76.8285 35.6133 77.1752 35.16C77.5218 34.6933 77.7818 34.18 77.9552 33.62C78.1418 33.0467 78.2352 32.4733 78.2352 31.9C78.2352 31.2867 78.1352 30.7 77.9352 30.14C77.7485 29.5667 77.4752 29.06 77.1152 28.62C76.7685 28.1667 76.3352 27.8133 75.8152 27.56C75.3085 27.2933 74.7352 27.16 74.0952 27.16C73.4152 27.16 72.8152 27.3 72.2952 27.58C71.7885 27.8467 71.3618 28.2067 71.0152 28.66C70.6685 29.1133 70.4018 29.62 70.2152 30.18C70.0418 30.74 69.9552 31.3133 69.9552 31.9ZM83.1323 39V24.8H89.1523C89.8057 24.8 90.4057 24.9333 90.9523 25.2C91.499 25.4667 91.9723 25.8267 92.3723 26.28C92.7857 26.7333 93.1057 27.24 93.3323 27.8C93.559 28.36 93.6723 28.9333 93.6723 29.52C93.6723 30.32 93.4857 31.08 93.1123 31.8C92.739 32.52 92.2257 33.1067 91.5723 33.56C90.919 34.0133 90.1457 34.24 89.2523 34.24H85.8923V39H83.1323ZM85.8923 31.82H89.0923C89.4257 31.82 89.7257 31.7267 89.9923 31.54C90.259 31.3533 90.4723 31.0867 90.6323 30.74C90.7923 30.38 90.8723 29.9733 90.8723 29.52C90.8723 29.0267 90.779 28.6067 90.5923 28.26C90.419 27.9133 90.1857 27.6533 89.8923 27.48C89.6123 27.3067 89.3057 27.22 88.9723 27.22H85.8923V31.82ZM96.8222 24.8L100.322 31.48L103.882 24.8H106.862L101.702 34.04V39H98.9622V34L93.8222 24.8H96.8222Z" fill="white"/>
<defs>
<radialGradient id="paint0_radial_2_100" cx="0" cy="0" r="1" gradientUnits="userSpaceOnUse" gradientTransform="translate(80 63) rotate(-90) scale(63 160)">
<stop stop-color="#FF9500" stop-opacity="0"/>
<stop offset="1" stop-color="#FF9500"/>
</radialGradient>
</defs>
</svg>
