<svg width="231" height="264" viewBox="0 0 231 264" fill="none" xmlns="http://www.w3.org/2000/svg">
<g clip-path="url(#clip0_2_80)">
<path fill-rule="evenodd" clip-rule="evenodd" d="M80.5809 212.391C83.134 210.907 86.1477 213.422 85.1443 216.199L80.5843 228.821L87.3292 240.424C88.8134 242.977 86.2984 245.991 83.5209 244.987L70.8988 240.427L59.2962 247.172C56.7432 248.656 53.7296 246.141 54.7329 243.364L59.2929 230.742L52.548 219.139C51.0638 216.586 53.5787 213.572 56.3563 214.576L68.9784 219.136L80.5809 212.391Z" fill="white"/>
</g>
<g clip-path="url(#clip1_2_80)">
<path fill-rule="evenodd" clip-rule="evenodd" d="M171.64 113.093C172.749 112.218 174.345 113.207 174.056 114.589L172.744 120.872L176.717 125.914C177.591 127.023 176.603 128.619 175.22 128.33L168.937 127.018L163.896 130.991C162.787 131.865 161.191 130.877 161.48 129.494L162.792 123.211L158.819 118.17C157.945 117.061 158.933 115.465 160.316 115.754L166.599 117.065L171.64 113.093Z" fill="white"/>
</g>
<g opacity="0.4" clip-path="url(#clip2_2_80)">
<path fill-rule="evenodd" clip-rule="evenodd" d="M158.805 4.0219C159.449 3.66477 160.187 4.30639 159.923 4.99346L158.724 8.1158L160.347 11.0402C160.704 11.6838 160.063 12.4222 159.376 12.1583L156.253 10.9595L153.329 12.5825C152.685 12.9395 151.947 12.2979 152.211 11.6109L153.41 8.48854L151.787 5.56411C151.43 4.92057 152.071 4.18217 152.758 4.446L155.881 5.64486L158.805 4.0219Z" fill="white"/>
</g>
<defs>
<clipPath id="clip0_2_80">
<rect width="44.5046" height="44.5046" fill="white" transform="matrix(-0.767768 -0.640728 -0.640728 0.767768 101.281 226.955)"/>
</clipPath>
<clipPath id="clip1_2_80">
<rect width="21.2844" height="21.2844" fill="white" transform="matrix(-0.850113 -0.526601 -0.526601 0.850113 182.419 118.599)"/>
</clipPath>
<clipPath id="clip2_2_80">
<rect width="11.0912" height="11.0912" fill="white" transform="matrix(-0.754845 -0.655903 -0.655903 0.754845 163.891 7.75348)"/>
</clipPath>
</defs>
</svg>
