<svg width="226" height="301" viewBox="0 0 226 301" fill="none" xmlns="http://www.w3.org/2000/svg">
<g clip-path="url(#clip0_2_84)">
<path fill-rule="evenodd" clip-rule="evenodd" d="M143.495 32.6425C144.131 29.7585 148.022 29.2427 149.387 31.8614L155.591 43.7619L168.697 46.6512C171.581 47.287 172.096 51.1781 169.478 52.5433L157.577 58.7473L154.688 71.8532C154.052 74.737 150.161 75.2528 148.796 72.6343L142.592 60.7337L129.486 57.8444C126.602 57.2086 126.086 53.3175 128.705 51.9523L140.606 45.7483L143.495 32.6425Z" fill="white"/>
</g>
<g clip-path="url(#clip1_2_84)">
<path fill-rule="evenodd" clip-rule="evenodd" d="M38.9333 155.589C39.6634 154.38 41.5053 154.743 41.7223 156.138L42.7085 162.48L48.2028 165.798C49.4118 166.528 49.049 168.37 47.6534 168.587L41.3112 169.573L37.9932 175.068C37.2631 176.277 35.4213 175.914 35.2042 174.518L34.2181 168.176L28.7238 164.858C27.5147 164.128 27.8776 162.286 29.2732 162.069L35.6154 161.083L38.9333 155.589Z" fill="white"/>
</g>
<g opacity="0.4" clip-path="url(#clip2_2_84)">
<path fill-rule="evenodd" clip-rule="evenodd" d="M145.627 286.507C145.844 285.804 146.821 285.755 147.106 286.433L148.404 289.516L151.6 290.502C152.303 290.719 152.352 291.696 151.673 291.981L148.591 293.279L147.605 296.475C147.388 297.178 146.411 297.226 146.126 296.548L144.828 293.465L141.632 292.48C140.929 292.263 140.88 291.286 141.559 291L144.641 289.703L145.627 286.507Z" fill="white"/>
</g>
<defs>
<clipPath id="clip0_2_84">
<rect width="44.5046" height="44.5046" fill="white" transform="matrix(-0.991329 0.131406 0.131406 0.991329 168.227 27.2644)"/>
</clipPath>
<clipPath id="clip1_2_84">
<rect width="21.2844" height="21.2844" fill="white" transform="matrix(-0.981143 -0.193281 -0.193281 0.981143 50.9617 156.944)"/>
</clipPath>
<clipPath id="clip2_2_84">
<rect width="11.0912" height="11.0912" fill="white" transform="matrix(-0.998769 0.0496052 0.0496052 0.998769 151.88 285.677)"/>
</clipPath>
</defs>
</svg>
