<svg width="184" height="63" viewBox="0 0 184 63" fill="none" xmlns="http://www.w3.org/2000/svg">
<rect x="0.5" width="183" height="63" rx="31.5" fill="black"/>
<rect x="0.5" width="183" height="63" rx="31.5" fill="#FFCA00"/>
<rect x="0.5" width="183" height="63" rx="31.5" fill="url(#paint0_radial_2_126)"/>
<path d="M63.44 28.52C63.3467 28.4267 63.1733 28.3 62.92 28.14C62.68 27.98 62.38 27.8267 62.02 27.68C61.6733 27.5333 61.2933 27.4067 60.88 27.3C60.4667 27.18 60.0467 27.12 59.62 27.12C58.8733 27.12 58.3067 27.26 57.92 27.54C57.5467 27.82 57.36 28.2133 57.36 28.72C57.36 29.1067 57.48 29.4133 57.72 29.64C57.96 29.8667 58.32 30.06 58.8 30.22C59.28 30.38 59.88 30.5533 60.6 30.74C61.5333 30.9667 62.34 31.2467 63.02 31.58C63.7133 31.9 64.24 32.3267 64.6 32.86C64.9733 33.38 65.16 34.0733 65.16 34.94C65.16 35.7 65.02 36.3533 64.74 36.9C64.46 37.4333 64.0733 37.8667 63.58 38.2C63.0867 38.5333 62.5267 38.78 61.9 38.94C61.2733 39.0867 60.6067 39.16 59.9 39.16C59.1933 39.16 58.4867 39.0867 57.78 38.94C57.0733 38.7933 56.3933 38.5867 55.74 38.32C55.0867 38.04 54.4867 37.7067 53.94 37.32L55.16 34.94C55.28 35.06 55.4933 35.22 55.8 35.42C56.1067 35.6067 56.48 35.8 56.92 36C57.36 36.1867 57.84 36.3467 58.36 36.48C58.88 36.6133 59.4067 36.68 59.94 36.68C60.6867 36.68 61.2533 36.5533 61.64 36.3C62.0267 36.0467 62.22 35.6867 62.22 35.22C62.22 34.7933 62.0667 34.46 61.76 34.22C61.4533 33.98 61.0267 33.7733 60.48 33.6C59.9333 33.4133 59.2867 33.2133 58.54 33C57.6467 32.7467 56.9 32.4667 56.3 32.16C55.7 31.84 55.2533 31.44 54.96 30.96C54.6667 30.48 54.52 29.88 54.52 29.16C54.52 28.1867 54.7467 27.3733 55.2 26.72C55.6667 26.0533 56.2933 25.5533 57.08 25.22C57.8667 24.8733 58.74 24.7 59.7 24.7C60.3667 24.7 60.9933 24.7733 61.58 24.92C62.18 25.0667 62.74 25.26 63.26 25.5C63.78 25.74 64.2467 26 64.66 26.28L63.44 28.52ZM77.1056 36.58V39H67.2456V24.8H76.9256V27.22H70.0056V30.64H75.9856V32.88H70.0056V36.58H77.1056ZM82.0173 29.88V39H79.2573V24.8H81.4573L88.7973 34.16V24.82H91.5573V39H89.2573L82.0173 29.88ZM94.5113 39V24.8H99.6713C101.218 24.8 102.511 25.12 103.551 25.76C104.591 26.3867 105.371 27.24 105.891 28.32C106.411 29.3867 106.671 30.5733 106.671 31.88C106.671 33.32 106.385 34.5733 105.811 35.64C105.238 36.7067 104.425 37.5333 103.371 38.12C102.331 38.7067 101.098 39 99.6713 39H94.5113ZM103.891 31.88C103.891 30.96 103.725 30.1533 103.391 29.46C103.058 28.7533 102.578 28.2067 101.951 27.82C101.325 27.42 100.565 27.22 99.6713 27.22H97.2713V36.58H99.6713C100.578 36.58 101.345 36.38 101.971 35.98C102.598 35.5667 103.071 35.0067 103.391 34.3C103.725 33.58 103.891 32.7733 103.891 31.88ZM113.632 39V24.8H116.392V39H113.632ZM129.975 27.22H125.435V39H122.695V27.22H118.155V24.8H129.975V27.22Z" fill="white"/>
<defs>
<radialGradient id="paint0_radial_2_126" cx="0" cy="0" r="1" gradientUnits="userSpaceOnUse" gradientTransform="translate(92 63) rotate(-90) scale(63 183)">
<stop stop-color="#FF9500" stop-opacity="0"/>
<stop offset="1" stop-color="#FF9500"/>
</radialGradient>
</defs>
</svg>
