<svg width="228" height="281" viewBox="0 0 228 281" fill="none" xmlns="http://www.w3.org/2000/svg">
<g clip-path="url(#clip0_2_96)">
<path fill-rule="evenodd" clip-rule="evenodd" d="M106.351 50.2723C104.178 52.2717 100.693 50.465 101.075 47.5365L102.808 34.2284L93.7224 24.3514C91.723 22.178 93.5297 18.6933 96.4582 19.0748L109.766 20.8085L119.643 11.7224C121.817 9.72317 125.301 11.5299 124.92 14.4581L123.186 27.7663L132.272 37.6433C134.272 39.8168 132.465 43.3015 129.536 42.9199L116.228 41.1863L106.351 50.2723Z" fill="white"/>
</g>
<g clip-path="url(#clip1_2_96)">
<path fill-rule="evenodd" clip-rule="evenodd" d="M62.7126 130.141C61.8177 131.234 60.0463 130.612 60.0304 129.2L59.9578 122.782L54.9923 118.715C53.8996 117.82 54.5212 116.049 55.9335 116.033L62.3514 115.96L66.4183 110.995C67.3132 109.902 69.0846 110.524 69.1006 111.936L69.1731 118.354L74.1386 122.421C75.2313 123.316 74.6098 125.087 73.1975 125.103L66.7795 125.175L62.7126 130.141Z" fill="white"/>
</g>
<g opacity="0.4" clip-path="url(#clip2_2_96)">
<path fill-rule="evenodd" clip-rule="evenodd" d="M121.77 277.291C121.218 277.779 120.359 277.311 120.469 276.583L120.967 273.276L118.752 270.77C118.264 270.219 118.732 269.359 119.46 269.469L122.767 269.967L125.273 267.752C125.825 267.265 126.684 267.732 126.574 268.46L126.076 271.767L128.291 274.273C128.778 274.825 128.311 275.684 127.583 275.575L124.276 275.076L121.77 277.291Z" fill="white"/>
</g>
<defs>
<clipPath id="clip0_2_96">
<rect width="44.5046" height="44.5046" fill="white" transform="matrix(0.887772 0.460283 0.460283 -0.887772 83 40.51)"/>
</clipPath>
<clipPath id="clip1_2_96">
<rect width="21.2844" height="21.2844" fill="white" transform="matrix(0.943597 0.331095 0.331095 -0.943597 50.9999 127.086)"/>
</clipPath>
<clipPath id="clip2_2_96">
<rect width="11.0912" height="11.0912" fill="white" transform="matrix(0.878422 0.477885 0.477885 -0.878422 116 274.743)"/>
</clipPath>
</defs>
</svg>
