<svg width="124" height="236" viewBox="0 0 124 236" fill="none" xmlns="http://www.w3.org/2000/svg">
<g clip-path="url(#clip0_2_92)">
<path fill-rule="evenodd" clip-rule="evenodd" d="M77.2774 189.01C78.7426 186.446 82.6109 187.111 83.135 190.018L85.5166 203.225L97.1689 209.884C99.733 211.349 99.0675 215.217 96.1612 215.741L82.9536 218.123L76.2953 229.775C74.8301 232.339 70.9617 231.674 70.4376 228.767L68.0561 215.56L56.4038 208.901C53.8396 207.436 54.5051 203.568 57.4115 203.044L70.619 200.662L77.2774 189.01Z" fill="white"/>
</g>
<g clip-path="url(#clip1_2_92)">
<path fill-rule="evenodd" clip-rule="evenodd" d="M97.7917 89.4559C98.3133 88.1434 100.19 88.1988 100.633 89.5398L102.647 95.6339L108.612 98.0044C109.925 98.5261 109.869 100.402 108.528 100.846L102.434 102.86L100.064 108.825C99.5419 110.137 97.6655 110.082 97.2222 108.741L95.2078 102.647L89.2432 100.276C87.9306 99.7547 87.986 97.8782 89.3271 97.435L95.4211 95.4205L97.7917 89.4559Z" fill="white"/>
</g>
<g opacity="0.4" clip-path="url(#clip2_2_92)">
<path fill-rule="evenodd" clip-rule="evenodd" d="M32.0111 1.51246C32.3889 0.880847 33.3495 1.06589 33.4656 1.79265L33.9934 5.09533L36.8637 6.81225C37.4953 7.19006 37.3103 8.15061 36.5835 8.26675L33.2808 8.79456L31.5639 11.6649C31.1861 12.2964 30.2256 12.1114 30.1094 11.3847L29.5816 8.08197L26.7113 6.36505C26.0797 5.98724 26.2647 5.02669 26.9915 4.91055L30.2942 4.38274L32.0111 1.51246Z" fill="white"/>
</g>
<defs>
<clipPath id="clip0_2_92">
<rect width="44.5046" height="44.5046" fill="white" transform="matrix(-0.985522 -0.169546 -0.169546 0.985522 102.489 191.235)"/>
</clipPath>
<clipPath id="clip1_2_92">
<rect width="21.2844" height="21.2844" fill="white" transform="matrix(-0.999564 -0.0295152 -0.0295152 0.999564 109.879 88.8169)"/>
</clipPath>
<clipPath id="clip2_2_92">
<rect width="11.0912" height="11.0912" fill="white" transform="matrix(-0.981947 -0.189154 -0.189154 0.981947 38.282 2.19214)"/>
</clipPath>
</defs>
</svg>
