<svg width="126" height="35" viewBox="0 0 126 35" fill="none" xmlns="http://www.w3.org/2000/svg">
<path d="M54.225 26.125C53.075 26.125 51.9833 25.8917 50.95 25.425C49.9333 24.9583 49.0333 24.3167 48.25 23.5C47.4833 22.6667 46.8833 21.7 46.45 20.6C46.0167 19.5 45.8 18.3083 45.8 17.025C45.8 15.8083 46.0167 14.6667 46.45 13.6C46.8833 12.5167 47.4917 11.5667 48.275 10.75C49.0583 9.93333 49.975 9.29167 51.025 8.825C52.075 8.35833 53.2167 8.125 54.45 8.125C56.1167 8.125 57.5417 8.48333 58.725 9.2C59.925 9.9 60.825 10.8333 61.425 12L58.85 13.9C58.4 13.0167 57.7667 12.3417 56.95 11.875C56.15 11.4083 55.275 11.175 54.325 11.175C53.575 11.175 52.8917 11.3333 52.275 11.65C51.6583 11.9667 51.125 12.4 50.675 12.95C50.225 13.5 49.875 14.1333 49.625 14.85C49.3917 15.5667 49.275 16.325 49.275 17.125C49.275 17.975 49.4 18.7583 49.65 19.475C49.9167 20.1917 50.2833 20.8167 50.75 21.35C51.2333 21.8833 51.7917 22.3083 52.425 22.625C53.0583 22.925 53.7583 23.075 54.525 23.075C55.425 23.075 56.2833 22.8417 57.1 22.375C57.9333 21.9083 58.7083 21.225 59.425 20.325V23.725C57.9417 25.325 56.2083 26.125 54.225 26.125ZM59.175 19.4H55.6V16.875H62.025V26H59.175V19.4ZM64.6402 26V12.9H67.9902V26H64.6402ZM64.6402 11.075V7.75H67.9902V11.075H64.6402ZM78.8623 25.325C78.579 25.4417 78.2373 25.575 77.8373 25.725C77.4373 25.875 77.004 25.9917 76.5373 26.075C76.0873 26.175 75.629 26.225 75.1623 26.225C74.5456 26.225 73.979 26.1167 73.4623 25.9C72.9456 25.6833 72.529 25.3417 72.2123 24.875C71.9123 24.3917 71.7623 23.7667 71.7623 23V15.475H70.0373V12.9H71.7623V8.65H75.1123V12.9H77.8623V15.475H75.1123V21.875C75.129 22.325 75.254 22.65 75.4873 22.85C75.7206 23.05 76.0123 23.15 76.3623 23.15C76.7123 23.15 77.054 23.0917 77.3873 22.975C77.7206 22.8583 77.9873 22.7583 78.1873 22.675L78.8623 25.325ZM92.782 26H89.432V18.65C89.432 17.6333 89.232 16.875 88.832 16.375C88.4487 15.875 87.9154 15.625 87.232 15.625C86.832 15.625 86.407 15.7417 85.957 15.975C85.507 16.2083 85.0987 16.5333 84.732 16.95C84.382 17.35 84.1237 17.8167 83.957 18.35V26H80.607V7.75H83.957V15.325C84.4404 14.4917 85.0987 13.8417 85.932 13.375C86.7654 12.9083 87.6737 12.675 88.657 12.675C89.507 12.675 90.1987 12.825 90.732 13.125C91.2654 13.4083 91.682 13.8 91.982 14.3C92.282 14.7833 92.4904 15.3333 92.607 15.95C92.7237 16.55 92.782 17.175 92.782 17.825V26ZM95.5699 21.1V12.9H98.9199V20.375C98.9199 21.375 99.1033 22.1333 99.4699 22.65C99.8366 23.15 100.378 23.4 101.095 23.4C101.528 23.4 101.953 23.3167 102.37 23.15C102.803 22.9667 103.195 22.7 103.545 22.35C103.912 22 104.22 21.5583 104.47 21.025V12.9H107.82V22.25C107.82 22.6 107.878 22.85 107.995 23C108.128 23.15 108.337 23.2417 108.62 23.275V26C108.287 26.05 108.003 26.0833 107.77 26.1C107.553 26.1333 107.353 26.15 107.17 26.15C106.57 26.15 106.078 26.0167 105.695 25.75C105.328 25.4667 105.112 25.0833 105.045 24.6L104.97 23.55C104.387 24.4333 103.637 25.1083 102.72 25.575C101.803 26.025 100.795 26.25 99.6949 26.25C98.3449 26.25 97.3199 25.8167 96.6199 24.95C95.9199 24.0667 95.5699 22.7833 95.5699 21.1ZM118.599 26.25C117.599 26.25 116.707 26.025 115.924 25.575C115.141 25.125 114.524 24.5083 114.074 23.725V26H111.149V7.75H114.499V15.2C114.966 14.4167 115.574 13.8 116.324 13.35C117.091 12.9 117.982 12.675 118.999 12.675C119.849 12.675 120.624 12.8583 121.324 13.225C122.024 13.575 122.624 14.0667 123.124 14.7C123.641 15.3333 124.032 16.0583 124.299 16.875C124.582 17.6917 124.724 18.5667 124.724 19.5C124.724 20.4333 124.566 21.3083 124.249 22.125C123.949 22.9417 123.524 23.6667 122.974 24.3C122.424 24.9167 121.774 25.4 121.024 25.75C120.291 26.0833 119.482 26.25 118.599 26.25ZM117.674 23.4C118.207 23.4 118.691 23.3 119.124 23.1C119.574 22.8833 119.957 22.6 120.274 22.25C120.607 21.9 120.857 21.4917 121.024 21.025C121.207 20.5417 121.299 20.0417 121.299 19.525C121.299 18.8083 121.149 18.15 120.849 17.55C120.566 16.9333 120.166 16.4417 119.649 16.075C119.149 15.7083 118.557 15.525 117.874 15.525C117.391 15.525 116.924 15.6417 116.474 15.875C116.041 16.0917 115.649 16.3917 115.299 16.775C114.966 17.1583 114.699 17.5917 114.499 18.075V21.2C114.599 21.5333 114.757 21.8333 114.974 22.1C115.207 22.3667 115.474 22.6 115.774 22.8C116.074 22.9833 116.382 23.1333 116.699 23.25C117.032 23.35 117.357 23.4 117.674 23.4Z" fill="white"/>
<path d="M17.5 2.91667C15.5849 2.91667 13.6886 3.29388 11.9192 4.02676C10.1499 4.75964 8.54223 5.83384 7.18805 7.18803C4.45314 9.92293 2.91669 13.6323 2.91669 17.5C2.91669 23.9458 7.1021 29.4146 12.8917 31.3542C13.6209 31.4708 13.8542 31.0188 13.8542 30.625V28.1604C9.8146 29.0354 8.95419 26.2063 8.95419 26.2063C8.28335 24.5146 7.33544 24.0625 7.33544 24.0625C6.00835 23.1583 7.43752 23.1875 7.43752 23.1875C8.89585 23.2896 9.66877 24.6896 9.66877 24.6896C10.9375 26.9063 13.0813 26.25 13.9125 25.9C14.0438 24.9521 14.4229 24.3104 14.8313 23.9458C11.5938 23.5813 8.19585 22.3271 8.19585 16.7708C8.19585 15.1521 8.75002 13.8542 9.69794 12.8188C9.5521 12.4542 9.04169 10.9375 9.84377 8.96875C9.84377 8.96875 11.0688 8.575 13.8542 10.4563C15.0063 10.1354 16.2604 9.975 17.5 9.975C18.7396 9.975 19.9938 10.1354 21.1459 10.4563C23.9313 8.575 25.1563 8.96875 25.1563 8.96875C25.9584 10.9375 25.4479 12.4542 25.3021 12.8188C26.25 13.8542 26.8042 15.1521 26.8042 16.7708C26.8042 22.3417 23.3917 23.5667 20.1396 23.9313C20.6646 24.3833 21.1459 25.2729 21.1459 26.6292V30.625C21.1459 31.0188 21.3792 31.4854 22.1229 31.3542C27.9125 29.4 32.0834 23.9458 32.0834 17.5C32.0834 15.5849 31.7061 13.6885 30.9733 11.9192C30.2404 10.1499 29.1662 8.54222 27.812 7.18803C26.4578 5.83384 24.8502 4.75964 23.0808 4.02676C21.3115 3.29388 19.4151 2.91667 17.5 2.91667Z" fill="white"/>
</svg>
