<svg width="229" height="77" viewBox="0 0 229 77" fill="none" xmlns="http://www.w3.org/2000/svg">
<rect x="0.976173" y="0.904762" width="227.048" height="74.619" rx="37.3095" fill="#F8A73E"/>
<rect x="0.976173" y="0.904762" width="227.048" height="74.619" rx="37.3095" stroke="url(#paint0_linear_0_81)" stroke-width="1.80952"/>
<path d="M45.2735 45.7143V27.981H48.1868V42.9276H57.1801V45.7143H45.2735ZM59.6638 44.1183C58.5153 42.8685 57.9411 41.2472 57.9411 39.2543C57.9411 37.2614 58.5153 35.6485 59.6638 34.4156C60.8291 33.1658 62.2816 32.541 64.0211 32.541C65.1189 32.541 66.1238 32.8618 67.0358 33.5036C67.4242 33.7738 67.7704 34.0863 68.0744 34.441H68.2011V32.7943H70.8611V45.7143H68.2011V43.941H68.0744C67.8211 44.2956 67.4749 44.6334 67.0358 44.9543C66.1238 45.6298 65.1189 45.9676 64.0211 45.9676C62.2816 45.9676 60.8291 45.3512 59.6638 44.1183ZM61.7411 36.0623C61.0656 36.8054 60.7278 37.8694 60.7278 39.2543C60.7278 40.6392 61.0656 41.7032 61.7411 42.4463C62.4167 43.1894 63.3456 43.561 64.5278 43.561C65.6424 43.561 66.5291 43.1894 67.1878 42.4463C67.8633 41.6863 68.2011 40.6223 68.2011 39.2543C68.2011 37.8863 67.8633 36.8307 67.1878 36.0876C66.5291 35.3276 65.6424 34.9476 64.5278 34.9476C63.3456 34.9476 62.4167 35.3192 61.7411 36.0623ZM73.8912 40.521V32.7943H76.5512V40.2676C76.5512 41.3992 76.7961 42.2352 77.2859 42.7756C77.7925 43.2992 78.561 43.561 79.5912 43.561C80.6214 43.561 81.4659 43.2147 82.1245 42.5223C82.8001 41.813 83.1379 40.8925 83.1379 39.761V32.7943H85.7979V45.7143H83.1379V43.941H83.0112C82.8085 44.2787 82.4961 44.6165 82.0739 44.9543C81.1619 45.6298 80.1232 45.9676 78.9579 45.9676C77.3534 45.9676 76.1037 45.5032 75.2085 44.5743C74.3303 43.6454 73.8912 42.2943 73.8912 40.521ZM88.8339 45.7143V32.7943H91.4939V34.5676H91.6206C91.8233 34.2298 92.1357 33.8921 92.5579 33.5543C93.4699 32.8787 94.5086 32.541 95.6739 32.541C97.2784 32.541 98.5197 33.0054 99.3979 33.9343C100.293 34.8632 100.741 36.2143 100.741 37.9876V45.7143H98.0806V38.241C98.0806 37.1094 97.8273 36.2818 97.3206 35.7583C96.8308 35.2178 96.0708 34.9476 95.0406 34.9476C94.0104 34.9476 93.1575 35.3023 92.4819 36.0116C91.8233 36.7041 91.4939 37.6161 91.4939 38.7476V45.7143H88.8339ZM104.742 44.0676C103.509 42.801 102.893 41.1965 102.893 39.2543C102.893 37.3121 103.509 35.7076 104.742 34.441C105.975 33.1743 107.512 32.541 109.353 32.541C111.413 32.541 113.094 33.3263 114.394 34.897C114.952 35.6232 115.34 36.4001 115.56 37.2276H112.773C112.655 36.8054 112.435 36.4254 112.114 36.0876C111.456 35.3276 110.535 34.9476 109.353 34.9476C108.306 34.9476 107.428 35.3445 106.718 36.1383C106.026 36.9321 105.68 37.9707 105.68 39.2543C105.68 40.5378 106.026 41.5765 106.718 42.3703C107.428 43.1641 108.306 43.561 109.353 43.561C110.569 43.561 111.523 43.181 112.216 42.421C112.52 42.0832 112.748 41.7032 112.9 41.281H115.56C115.34 42.1423 114.952 42.9276 114.394 43.637C113.111 45.1907 111.43 45.9676 109.353 45.9676C107.512 45.9676 105.975 45.3343 104.742 44.0676ZM117.705 45.7143V27.981H120.365V34.5676H120.492C120.694 34.2298 121.007 33.8921 121.429 33.5543C122.341 32.8787 123.38 32.541 124.545 32.541C126.149 32.541 127.391 33.0054 128.269 33.9343C129.164 34.8632 129.612 36.2143 129.612 37.9876V45.7143H126.952V38.241C126.952 37.1094 126.698 36.2818 126.192 35.7583C125.702 35.2178 124.942 34.9476 123.912 34.9476C122.881 34.9476 122.029 35.3023 121.353 36.0116C120.694 36.7041 120.365 37.6161 120.365 38.7476V45.7143H117.705ZM137.717 45.7143L142.277 27.981H149.497L154.184 45.7143H151.144L149.928 41.1543H141.771L140.631 45.7143H137.717ZM142.531 38.3676H149.219L147.217 30.7676H144.431L142.531 38.3676ZM156.076 50.5276V32.7943H158.736V34.441H158.863C159.167 34.0863 159.513 33.7738 159.901 33.5036C160.813 32.8618 161.818 32.541 162.916 32.541C164.656 32.541 166.1 33.1658 167.248 34.4156C168.413 35.6485 168.996 37.2614 168.996 39.2543C168.996 41.2472 168.413 42.8685 167.248 44.1183C166.1 45.3512 164.656 45.9676 162.916 45.9676C161.801 45.9676 160.797 45.6552 159.901 45.0303C159.496 44.7432 159.15 44.4223 158.863 44.0676H158.736V50.5276H156.076ZM159.724 36.0876C159.065 36.8307 158.736 37.8863 158.736 39.2543C158.736 40.6223 159.065 41.6863 159.724 42.4463C160.4 43.1894 161.295 43.561 162.409 43.561C163.592 43.561 164.521 43.1894 165.196 42.4463C165.872 41.7032 166.209 40.6392 166.209 39.2543C166.209 37.8694 165.872 36.8054 165.196 36.0623C164.521 35.3192 163.592 34.9476 162.409 34.9476C161.295 34.9476 160.4 35.3276 159.724 36.0876ZM171.266 50.5276V32.7943H173.926V34.441H174.053C174.357 34.0863 174.703 33.7738 175.092 33.5036C176.004 32.8618 177.008 32.541 178.106 32.541C179.846 32.541 181.29 33.1658 182.438 34.4156C183.604 35.6485 184.186 37.2614 184.186 39.2543C184.186 41.2472 183.604 42.8685 182.438 44.1183C181.29 45.3512 179.846 45.9676 178.106 45.9676C176.992 45.9676 175.987 45.6552 175.092 45.0303C174.686 44.7432 174.34 44.4223 174.053 44.0676H173.926V50.5276H171.266ZM174.914 36.0876C174.256 36.8307 173.926 37.8863 173.926 39.2543C173.926 40.6223 174.256 41.6863 174.914 42.4463C175.59 43.1894 176.485 43.561 177.6 43.561C178.782 43.561 179.711 43.1894 180.386 42.4463C181.062 41.7032 181.4 40.6392 181.4 39.2543C181.4 37.8694 181.062 36.8054 180.386 36.0623C179.711 35.3192 178.782 34.9476 177.6 34.9476C176.485 34.9476 175.59 35.3276 174.914 36.0876Z" fill="white"/>
<defs>
<linearGradient id="paint0_linear_0_81" x1="57.8604" y1="26.1817" x2="72.1084" y2="94.5497" gradientUnits="userSpaceOnUse">
<stop stop-color="#F8A73E"/>
<stop offset="1" stop-color="white" stop-opacity="0"/>
</linearGradient>
</defs>
</svg>
