<svg width="82" height="57" viewBox="0 0 82 57" fill="none" xmlns="http://www.w3.org/2000/svg">
<path d="M74.3562 0.23482C74.7789 -0.12072 75.4097 -0.0663386 75.7652 0.356284L81.5591 7.24332C81.9146 7.66594 81.8602 8.29677 81.4376 8.65231C81.015 9.00785 80.3842 8.95346 80.0286 8.53084L74.8785 2.40903L68.7567 7.55913C68.3341 7.91467 67.7033 7.86029 67.3477 7.43766C66.9922 7.01504 67.0466 6.38421 67.4692 6.02867L74.3562 0.23482ZM1 55L1.05787 54.0017C12.4281 54.6609 29.7379 52.7759 44.6636 45.0129C59.5397 37.2757 72.038 23.7158 74.0037 0.914157L75 1.00005L75.9963 1.08593C73.962 24.6843 60.9603 38.7911 45.5864 46.7872C30.2621 54.7575 12.5719 56.6726 0.942126 55.9984L1 55Z" fill="#FFCA00"/>
</svg>
