<svg width="295" height="341" viewBox="0 0 295 341" fill="none" xmlns="http://www.w3.org/2000/svg">
<g clip-path="url(#clip0_2_128)">
<path fill-rule="evenodd" clip-rule="evenodd" d="M152.015 30.0828C152.466 28.038 155.225 27.6724 156.193 29.5291L160.591 37.9667L169.884 40.0153C171.928 40.4661 172.294 43.225 170.437 44.1929L162 48.5917L159.951 57.884C159.5 59.9286 156.742 60.2944 155.774 58.4378L151.375 50L142.083 47.9515C140.038 47.5007 139.672 44.7418 141.529 43.7739L149.967 39.3751L152.015 30.0828Z" fill="white"/>
</g>
<g clip-path="url(#clip1_2_128)">
<path fill-rule="evenodd" clip-rule="evenodd" d="M38.9685 179.759C39.6986 178.55 41.5405 178.913 41.7575 180.308L42.7437 186.65L48.238 189.968C49.447 190.699 49.0842 192.54 47.6886 192.757L41.3464 193.744L38.0284 199.238C37.2983 200.447 35.4565 200.084 35.2395 198.688L34.2533 192.346L28.759 189.028C27.5499 188.298 27.9128 186.456 29.3084 186.239L35.6506 185.253L38.9685 179.759Z" fill="white"/>
</g>
<g opacity="0.4" clip-path="url(#clip2_2_128)">
<path fill-rule="evenodd" clip-rule="evenodd" d="M207.825 326.829C208.042 326.126 209.019 326.078 209.304 326.756L210.602 329.839L213.798 330.824C214.501 331.041 214.55 332.018 213.871 332.304L210.789 333.601L209.803 336.797C209.586 337.501 208.609 337.549 208.324 336.871L207.026 333.788L203.83 332.802C203.127 332.586 203.078 331.609 203.757 331.323L206.839 330.026L207.825 326.829Z" fill="white"/>
</g>
<defs>
<clipPath id="clip0_2_128">
<rect width="31.5546" height="31.5546" fill="white" transform="matrix(-0.991329 0.131406 0.131406 0.991329 169.55 26.2697)"/>
</clipPath>
<clipPath id="clip1_2_128">
<rect width="21.2844" height="21.2844" fill="white" transform="matrix(-0.981143 -0.193281 -0.193281 0.981143 50.9969 181.114)"/>
</clipPath>
<clipPath id="clip2_2_128">
<rect width="11.0912" height="11.0912" fill="white" transform="matrix(-0.998769 0.0496052 0.0496052 0.998769 214.078 326)"/>
</clipPath>
</defs>
</svg>
