<svg width="82" height="57" viewBox="0 0 82 57" fill="none" xmlns="http://www.w3.org/2000/svg">
<path d="M7.64376 0.23482C7.22114 -0.12072 6.59032 -0.0663386 6.23478 0.356284L0.440921 7.24332C0.0853816 7.66594 0.139763 8.29677 0.562386 8.65231C0.985008 9.00785 1.61583 8.95346 1.97137 8.53084L7.12147 2.40903L13.2433 7.55913C13.6659 7.91467 14.2967 7.86029 14.6523 7.43766C15.0078 7.01504 14.9534 6.38421 14.5308 6.02867L7.64376 0.23482ZM81 55L80.9421 54.0017C69.5719 54.6609 52.2621 52.7759 37.3364 45.0129C22.4603 37.2757 9.96197 23.7158 7.99631 0.914157L7 1.00005L6.0037 1.08593C8.03803 24.6843 21.0397 38.7911 36.4136 46.7872C51.7379 54.7575 69.4281 56.6726 81.0579 55.9984L81 55Z" fill="#FFCA00"/>
</svg>
