<svg width="183" height="246" viewBox="0 0 183 246" fill="none" xmlns="http://www.w3.org/2000/svg">
<g clip-path="url(#clip0_2_88)">
<path fill-rule="evenodd" clip-rule="evenodd" d="M84.1906 195.479C86.364 193.48 89.8487 195.287 89.4672 198.215L87.7335 211.523L96.8196 221.4C98.819 223.574 97.0123 227.058 94.0838 226.677L80.7757 224.943L70.8987 234.029C68.7253 236.029 65.2406 234.222 65.622 231.294L67.3558 217.985L58.2698 208.108C56.2703 205.935 58.077 202.45 61.0055 202.832L74.3136 204.565L84.1906 195.479Z" fill="white"/>
</g>
<g clip-path="url(#clip1_2_88)">
<path fill-rule="evenodd" clip-rule="evenodd" d="M133.915 106.827C134.81 105.734 136.581 106.355 136.597 107.768L136.67 114.186L141.635 118.253C142.728 119.147 142.106 120.919 140.694 120.935L134.276 121.007L130.209 125.973C129.314 127.066 127.543 126.444 127.527 125.032L127.454 118.614L122.489 114.547C121.396 113.652 122.018 111.881 123.43 111.865L129.848 111.792L133.915 106.827Z" fill="white"/>
</g>
<g opacity="0.4" clip-path="url(#clip2_2_88)">
<path fill-rule="evenodd" clip-rule="evenodd" d="M97.8843 3.08184C98.4358 2.59445 99.2951 3.06194 99.1855 3.78971L98.6874 7.09701L100.902 9.60314C101.39 10.1546 100.922 11.0139 100.194 10.9043L96.8871 10.4062L94.381 12.6211C93.8295 13.1084 92.9702 12.641 93.0798 11.9132L93.5779 8.60593L91.363 6.0998C90.8756 5.54831 91.3431 4.68903 92.0709 4.79864L95.3782 5.2967L97.8843 3.08184Z" fill="white"/>
</g>
<defs>
<clipPath id="clip0_2_88">
<rect width="44.5046" height="44.5046" fill="white" transform="matrix(-0.887772 -0.460283 -0.460283 0.887772 107.542 205.242)"/>
</clipPath>
<clipPath id="clip1_2_88">
<rect width="21.2844" height="21.2844" fill="white" transform="matrix(-0.943597 -0.331095 -0.331095 0.943597 145.627 109.881)"/>
</clipPath>
<clipPath id="clip2_2_88">
<rect width="11.0912" height="11.0912" fill="white" transform="matrix(-0.878422 -0.477885 -0.477885 0.878422 103.654 5.63025)"/>
</clipPath>
</defs>
</svg>
