<svg width="180" height="35" viewBox="0 0 180 35" fill="none" xmlns="http://www.w3.org/2000/svg">
<path d="M41.775 17C41.775 15.9167 41.9667 14.8583 42.35 13.825C42.75 12.775 43.325 11.825 44.075 10.975C44.825 10.1083 45.7417 9.425 46.825 8.925C47.9083 8.40833 49.1417 8.15 50.525 8.15C52.1583 8.15 53.5667 8.50833 54.75 9.225C55.95 9.94167 56.8417 10.875 57.425 12.025L54.775 13.85C54.475 13.1833 54.0833 12.6583 53.6 12.275C53.1167 11.875 52.6 11.6 52.05 11.45C51.5 11.2833 50.9583 11.2 50.425 11.2C49.5583 11.2 48.8 11.375 48.15 11.725C47.5167 12.075 46.9833 12.5333 46.55 13.1C46.1167 13.6667 45.7917 14.3 45.575 15C45.375 15.7 45.275 16.4 45.275 17.1C45.275 17.8833 45.4 18.6417 45.65 19.375C45.9 20.0917 46.25 20.7333 46.7 21.3C47.1667 21.85 47.7167 22.2917 48.35 22.625C49 22.9417 49.7083 23.1 50.475 23.1C51.025 23.1 51.5833 23.0083 52.15 22.825C52.7167 22.6417 53.2417 22.35 53.725 21.95C54.2083 21.55 54.5833 21.0333 54.85 20.4L57.675 22.025C57.325 22.9083 56.75 23.6583 55.95 24.275C55.1667 24.8917 54.2833 25.3583 53.3 25.675C52.3167 25.9917 51.3417 26.15 50.375 26.15C49.1083 26.15 47.95 25.8917 46.9 25.375C45.85 24.8417 44.9417 24.1417 44.175 23.275C43.425 22.3917 42.8333 21.4083 42.4 20.325C41.9833 19.225 41.775 18.1167 41.775 17ZM65.6648 26.25C64.5982 26.25 63.6398 26.075 62.7898 25.725C61.9398 25.3583 61.2148 24.8583 60.6148 24.225C60.0315 23.5917 59.5815 22.8667 59.2648 22.05C58.9482 21.2333 58.7898 20.375 58.7898 19.475C58.7898 18.5583 58.9482 17.6917 59.2648 16.875C59.5815 16.0583 60.0315 15.3333 60.6148 14.7C61.2148 14.0667 61.9398 13.575 62.7898 13.225C63.6398 12.8583 64.5982 12.675 65.6648 12.675C66.7315 12.675 67.6815 12.8583 68.5148 13.225C69.3648 13.575 70.0898 14.0667 70.6898 14.7C71.2898 15.3333 71.7398 16.0583 72.0398 16.875C72.3565 17.6917 72.5148 18.5583 72.5148 19.475C72.5148 20.375 72.3565 21.2333 72.0398 22.05C71.7398 22.8667 71.2898 23.5917 70.6898 24.225C70.1065 24.8583 69.3898 25.3583 68.5398 25.725C67.6898 26.075 66.7315 26.25 65.6648 26.25ZM62.2398 19.475C62.2398 20.2417 62.3898 20.925 62.6898 21.525C62.9898 22.1083 63.3982 22.5667 63.9148 22.9C64.4315 23.2333 65.0148 23.4 65.6648 23.4C66.2982 23.4 66.8732 23.2333 67.3898 22.9C67.9065 22.55 68.3148 22.0833 68.6148 21.5C68.9315 20.9 69.0898 20.2167 69.0898 19.45C69.0898 18.7 68.9315 18.025 68.6148 17.425C68.3148 16.825 67.9065 16.3583 67.3898 16.025C66.8732 15.6917 66.2982 15.525 65.6648 15.525C65.0148 15.525 64.4315 15.7 63.9148 16.05C63.3982 16.3833 62.9898 16.85 62.6898 17.45C62.3898 18.0333 62.2398 18.7083 62.2398 19.475ZM95.126 26H91.776V18.65C91.776 17.6167 91.5926 16.8583 91.226 16.375C90.876 15.875 90.3843 15.625 89.751 15.625C89.101 15.625 88.476 15.8833 87.876 16.4C87.2926 16.9 86.876 17.5583 86.626 18.375V26H83.276V18.65C83.276 17.6 83.0926 16.8333 82.726 16.35C82.376 15.8667 81.8843 15.625 81.251 15.625C80.601 15.625 79.976 15.875 79.376 16.375C78.7926 16.875 78.376 17.5333 78.126 18.35V26H74.776V12.9H77.801V15.325C78.301 14.475 78.9676 13.825 79.801 13.375C80.6343 12.9083 81.5926 12.675 82.676 12.675C83.7593 12.675 84.601 12.9417 85.201 13.475C85.8176 14.0083 86.2093 14.6667 86.376 15.45C86.9093 14.55 87.5843 13.8667 88.401 13.4C89.2343 12.9167 90.1676 12.675 91.201 12.675C92.0176 12.675 92.676 12.825 93.176 13.125C93.6926 13.4083 94.0926 13.8 94.376 14.3C94.6593 14.7833 94.851 15.3333 94.951 15.95C95.0676 16.5667 95.126 17.1917 95.126 17.825V26ZM118.393 26H115.043V18.65C115.043 17.6167 114.859 16.8583 114.493 16.375C114.143 15.875 113.651 15.625 113.018 15.625C112.368 15.625 111.743 15.8833 111.143 16.4C110.559 16.9 110.143 17.5583 109.893 18.375V26H106.543V18.65C106.543 17.6 106.359 16.8333 105.993 16.35C105.643 15.8667 105.151 15.625 104.518 15.625C103.868 15.625 103.243 15.875 102.643 16.375C102.059 16.875 101.643 17.5333 101.393 18.35V26H98.0426V12.9H101.068V15.325C101.568 14.475 102.234 13.825 103.068 13.375C103.901 12.9083 104.859 12.675 105.943 12.675C107.026 12.675 107.868 12.9417 108.468 13.475C109.084 14.0083 109.476 14.6667 109.643 15.45C110.176 14.55 110.851 13.8667 111.668 13.4C112.501 12.9167 113.434 12.675 114.468 12.675C115.284 12.675 115.943 12.825 116.443 13.125C116.959 13.4083 117.359 13.8 117.643 14.3C117.926 14.7833 118.118 15.3333 118.218 15.95C118.334 16.5667 118.393 17.1917 118.393 17.825V26ZM121.184 21.1V12.9H124.534V20.375C124.534 21.375 124.718 22.1333 125.084 22.65C125.451 23.15 125.993 23.4 126.709 23.4C127.143 23.4 127.568 23.3167 127.984 23.15C128.418 22.9667 128.809 22.7 129.159 22.35C129.526 22 129.834 21.5583 130.084 21.025V12.9H133.434V22.25C133.434 22.6 133.493 22.85 133.609 23C133.743 23.15 133.951 23.2417 134.234 23.275V26C133.901 26.05 133.618 26.0833 133.384 26.1C133.168 26.1333 132.968 26.15 132.784 26.15C132.184 26.15 131.693 26.0167 131.309 25.75C130.943 25.4667 130.726 25.0833 130.659 24.6L130.584 23.55C130.001 24.4333 129.251 25.1083 128.334 25.575C127.418 26.025 126.409 26.25 125.309 26.25C123.959 26.25 122.934 25.8167 122.234 24.95C121.534 24.0667 121.184 22.7833 121.184 21.1ZM148.938 26H145.588V18.65C145.588 17.6 145.405 16.8333 145.038 16.35C144.672 15.8667 144.163 15.625 143.513 15.625C143.063 15.625 142.605 15.7417 142.138 15.975C141.688 16.2083 141.28 16.5333 140.913 16.95C140.547 17.35 140.28 17.8167 140.113 18.35V26H136.763V12.9H139.788V15.325C140.122 14.7583 140.547 14.2833 141.063 13.9C141.58 13.5 142.172 13.2 142.838 13C143.522 12.7833 144.238 12.675 144.988 12.675C145.805 12.675 146.472 12.825 146.988 13.125C147.522 13.4083 147.922 13.8 148.188 14.3C148.472 14.7833 148.663 15.3333 148.763 15.95C148.88 16.5667 148.938 17.1917 148.938 17.825V26ZM151.851 26V12.9H155.201V26H151.851ZM151.851 11.075V7.75H155.201V11.075H151.851ZM166.073 25.325C165.79 25.4417 165.448 25.575 165.048 25.725C164.648 25.875 164.215 25.9917 163.748 26.075C163.298 26.175 162.84 26.225 162.373 26.225C161.757 26.225 161.19 26.1167 160.673 25.9C160.157 25.6833 159.74 25.3417 159.423 24.875C159.123 24.3917 158.973 23.7667 158.973 23V15.475H157.248V12.9H158.973V8.65H162.323V12.9H165.073V15.475H162.323V21.875C162.34 22.325 162.465 22.65 162.698 22.85C162.932 23.05 163.223 23.15 163.573 23.15C163.923 23.15 164.265 23.0917 164.598 22.975C164.932 22.8583 165.198 22.7583 165.398 22.675L166.073 25.325ZM168.044 28.55C168.344 28.6167 168.619 28.675 168.869 28.725C169.136 28.775 169.361 28.8 169.544 28.8C169.861 28.8 170.119 28.7167 170.319 28.55C170.536 28.4 170.744 28.1167 170.944 27.7C171.144 27.3 171.352 26.7333 171.569 26L166.394 12.9H169.869L173.394 22.575L176.494 12.9H179.694L174.194 28.6C173.994 29.1833 173.686 29.7083 173.269 30.175C172.869 30.6583 172.361 31.0333 171.744 31.3C171.144 31.5833 170.469 31.725 169.719 31.725C169.452 31.725 169.186 31.7 168.919 31.65C168.652 31.6167 168.361 31.55 168.044 31.45V28.55Z" fill="white"/>
<g clip-path="url(#clip0_0_74)">
<path d="M24.717 3.28125H29.6022L18.9321 15.3262L31.4844 31.7188H21.6585L13.9569 21.7793L5.15512 31.7188H0.262935L11.6734 18.833L-0.359833 3.28125H9.71517L16.6694 12.3662L24.717 3.28125ZM23.0009 28.834H25.7065L8.24128 6.01562H5.33503L23.0009 28.834Z" fill="white"/>
</g>
<defs>
<clipPath id="clip0_0_74">
<rect width="31" height="35" fill="white"/>
</clipPath>
</defs>
</svg>
